<svg width="42" height="40" viewBox="0 0 42 40" fill="none" xmlns="http://www.w3.org/2000/svg">
<path d="M9.69809 10H5.34905C4.19561 10 3.08941 10.439 2.27381 11.2204C1.4582 12.0018 1 13.0616 1 14.1667V30.8333H5.34905V22.5H9.69809V30.8333H14.0471V14.1667C14.0471 13.0616 13.5889 12.0018 12.7733 11.2204C11.9577 10.439 10.8515 10 9.69809 10V10ZM9.69809 18.3333H5.34905V14.1667H9.69809V18.3333ZM24.9198 10H16.2217V30.8333H20.5707V22.5H24.9198C26.0732 22.5 27.1794 22.061 27.995 21.2796C28.8106 20.4982 29.2688 19.4384 29.2688 18.3333V14.1667C29.2688 13.0616 28.8106 12.0018 27.995 11.2204C27.1794 10.439 26.0732 10 24.9198 10V10ZM24.9198 18.3333H20.5707V14.1667H24.9198V18.3333ZM37.9669 14.1667V26.6667H40.1414V30.8333H31.4433V26.6667H33.6178V14.1667H31.4433V10H40.1414V14.1667H37.9669Z" fill="#27282D"/>
</svg>
