<svg width="42" height="40" viewBox="0 0 42 40" fill="none" xmlns="http://www.w3.org/2000/svg">
<rect width="42" height="40" rx="5" fill="white"/>
<path d="M10.7778 11H6.88889C5.85749 11 4.86834 11.4004 4.13903 12.113C3.40972 12.8256 3 13.7922 3 14.8V30H6.88889V22.4H10.7778V30H14.6666V14.8C14.6666 13.7922 14.2569 12.8256 13.5276 12.113C12.7983 11.4004 11.8092 11 10.7778 11ZM10.7778 18.6H6.88889V14.8H10.7778V18.6ZM24.3889 11H16.6112V30H20.5V22.4H24.3889C25.4203 22.4 26.4095 21.9997 27.1388 21.287C27.8681 20.5744 28.2778 19.6078 28.2778 18.6V14.8C28.2778 13.7922 27.8681 12.8256 27.1388 12.113C26.4095 11.4004 25.4203 11 24.3889 11ZM24.3889 18.6H20.5V14.8H24.3889V18.6ZM36.0556 14.8V26.2001H38V30H30.2222V26.2001H32.1666V14.8H30.2222V11H38V14.8H36.0556Z" fill="#27282D"/>
</svg>
