<svg width="53" height="50" viewBox="0 0 53 50" fill="none" xmlns="http://www.w3.org/2000/svg">
<g clip-path="url(#clip0_20_145)">
<path d="M51.3879 22.7723L28.6019 0.942973C27.2904 -0.314253 25.1621 -0.314253 23.8491 0.942973L19.1174 5.47618L25.1197 11.2268C26.5146 10.7752 28.114 11.0781 29.2259 12.1434C30.3431 13.2154 30.657 14.7609 30.1743 16.1016L35.9588 21.6438C37.3584 21.1818 38.9731 21.4807 40.0909 22.5533C41.6531 24.0494 41.6531 26.4742 40.0909 27.9713C38.5283 29.4686 35.9974 29.4686 34.434 27.9713C33.2589 26.8443 32.9686 25.191 33.5635 23.8041L28.1689 18.6357L28.1683 32.2367C28.5593 32.422 28.9165 32.6667 29.2259 32.9613C30.7881 34.4574 30.7881 36.8824 29.2259 38.3807C27.6633 39.8772 25.1311 39.8772 23.5708 38.3807C22.0086 36.8824 22.0086 34.4576 23.5708 32.9615C23.9452 32.6027 24.3901 32.3185 24.8798 32.1254V18.3977C24.3894 18.2059 23.9442 17.9215 23.5708 17.5615C22.3872 16.4291 22.1026 14.7652 22.7091 13.3729L16.7922 7.70352L1.16824 22.6713C-0.144623 23.9297 -0.144623 25.969 1.16824 27.2264L23.9547 49.0561C25.2665 50.3135 27.3944 50.3135 28.7079 49.0561L51.3877 27.3277C52.7002 26.0699 52.7002 24.0295 51.3877 22.7723" fill="#DE4C36"/>
</g>
<defs>
<clipPath id="clip0_20_145">
<rect width="52.1886" height="50" fill="white" transform="translate(0.183594)"/>
</clipPath>
</defs>
</svg>
