<svg width="53" height="50" viewBox="0 0 53 50" fill="none" xmlns="http://www.w3.org/2000/svg">
<path d="M17.7151 42.9688C12.8224 44.5312 7.92972 41.4062 6.29883 39.8438M19.346 44.5312C19.346 44.5312 17.7151 38.2812 20.9769 35.1562C20.9769 35.1562 14.4533 35.1562 9.56061 30.4688C4.66794 25.7812 6.29883 16.4062 9.56061 13.2812C7.92972 8.59375 11.1915 5.46875 11.1915 5.46875C11.1915 5.46875 16.0842 5.46875 19.346 8.59375C22.6078 7.03125 30.7622 7.03125 34.024 8.59375C37.2858 5.46875 42.1785 5.46875 42.1785 5.46875C42.1785 5.46875 45.4402 8.59375 43.8094 13.2812C47.0711 16.4062 48.702 25.7812 43.8094 30.4688C38.9167 35.1562 32.3931 35.1562 32.3931 35.1562C35.6549 38.2812 34.024 44.5312 34.024 44.5312H19.346Z" stroke="white" stroke-width="1.5" stroke-linecap="round" stroke-linejoin="round"/>
</svg>
