<svg width="46" height="44" viewBox="0 0 46 44" fill="none" xmlns="http://www.w3.org/2000/svg">
<rect width="46" height="43.3962" rx="5" fill="white"/>
<path d="M15.3754 37.2937C11.1289 38.6497 6.88239 35.9374 5.4669 34.5814L15.3754 37.2937ZM16.7909 38.6497C16.7909 38.6497 15.3754 33.2252 18.2064 30.5129C18.2064 30.5129 12.5444 30.5129 8.29788 26.4446C4.05141 22.3761 5.4669 14.2393 8.29788 11.5271C6.88239 7.45873 9.71337 4.74646 9.71337 4.74646C9.71337 4.74646 13.9599 4.74646 16.7909 7.45872C19.6219 6.10259 26.6993 6.10259 29.5303 7.45872C32.3613 4.74646 36.6077 4.74646 36.6077 4.74646C36.6077 4.74646 39.4387 7.45873 38.0232 11.5271C40.8542 14.2393 42.2697 22.3761 38.0232 26.4446C33.7767 30.5129 28.1148 30.5129 28.1148 30.5129C30.9458 33.2252 29.5303 38.6497 29.5303 38.6497H16.7909Z" stroke="#27282D" stroke-width="1.5" stroke-linecap="round" stroke-linejoin="round"/>
</svg>
