<svg width="53" height="50" viewBox="0 0 53 50" fill="none" xmlns="http://www.w3.org/2000/svg">
<path d="M9.67096 42.5016L6.00635 3.125H46.2731L42.6036 42.4953L26.1153 46.875L9.67096 42.5016Z" fill="#E44F26"/>
<path d="M26.1396 43.5281L39.464 39.9891L42.5986 6.34531H26.1396V43.5281Z" fill="#F1662A"/>
<path d="M26.1399 20.9484H19.4696L19.0096 16.0031H26.1399V11.1734H13.5005L13.6212 12.4703L14.859 25.7781H26.1399V20.9484ZM26.1399 33.4906L26.1171 33.4969L20.5035 32.0453L20.1447 28.1937H15.0841L15.7903 35.775L26.1171 38.5219L26.1399 38.5156V33.4906Z" fill="#EBEBEB"/>
<path d="M26.1216 20.9484V25.7781H32.3288L31.7449 32.0422L26.1216 33.4953V38.5203L36.4565 35.775L36.5316 34.9594L37.7156 22.2453L37.8395 20.9484H26.1216ZM26.1216 11.1734V16.0031H38.2978L38.3989 14.9187L38.6289 12.4703L38.7496 11.1734H26.1216Z" fill="white"/>
</svg>
