<svg width="53" height="50" viewBox="0 0 53 50" fill="none" xmlns="http://www.w3.org/2000/svg">
<path d="M3.48926 3.125H49.1542V46.875H3.48926V3.125Z" fill="#F5DE19"/>
<path d="M34.1647 37.3047C34.5538 38.0619 35.1583 38.6983 35.9085 39.1406C36.6588 39.5829 37.5242 39.8131 38.405 39.8047C40.1827 39.8047 41.3194 38.9531 41.3194 37.7734C41.3194 36.3672 40.1517 35.8641 38.1947 35.0438L37.1215 34.6031C34.0228 33.3391 31.9679 31.7563 31.9679 28.4094C31.9679 25.3266 34.4142 22.9781 38.2517 22.9781C39.494 22.8922 40.7352 23.1586 41.8204 23.744C42.9057 24.3295 43.7871 25.2081 44.3545 26.2703L40.9998 28.325C40.7813 27.7983 40.4008 27.3477 39.9089 27.0329C39.4169 26.7182 38.8367 26.5541 38.2452 26.5625C37.9871 26.5377 37.7265 26.5648 37.48 26.6419C37.2334 26.7189 37.0063 26.8444 36.8131 27.0102C36.6199 27.176 36.4649 27.3785 36.358 27.6049C36.251 27.8313 36.1945 28.0765 36.1919 28.325C36.1919 29.5578 36.9894 30.0578 38.8307 30.825L39.9038 31.2656C43.5505 32.7641 45.6119 34.2906 45.6119 37.7234C45.6119 41.425 42.5769 43.4531 38.5013 43.4531C36.9133 43.5501 35.3299 43.2046 33.9423 42.4586C32.5547 41.7125 31.4221 40.5976 30.6811 39.2484L34.1647 37.3047ZM19.0056 37.6609C19.6791 38.8063 20.2924 39.775 21.7667 39.775C23.1758 39.775 24.0662 39.2469 24.0662 37.1922V23.2125H28.3571V37.2469C28.3571 41.5031 25.7477 43.4406 21.9493 43.4406C20.6067 43.5109 19.2733 43.1904 18.1244 42.5211C16.9755 41.8518 16.0648 40.865 15.5122 39.6906L19.0056 37.6609Z" fill="black"/>
</svg>
