<svg width="51" height="43" viewBox="0 0 51 43" fill="none" xmlns="http://www.w3.org/2000/svg">
<g clip-path="url(#clip0_20_135)">
<path d="M41.8939 13.923C41.3576 13.7467 40.8167 13.5834 40.2718 13.4332C40.3633 13.0748 40.4476 12.7208 40.5224 12.3731C41.7504 6.66218 40.9476 2.06137 38.2057 0.546566C35.5767 -0.905627 31.2773 0.608614 26.9351 4.2291C26.5072 4.58655 26.0887 4.95431 25.6802 5.33201C25.4067 5.08085 25.1284 4.83457 24.8453 4.59328C20.2945 0.722149 15.7331 -0.909399 12.9941 0.609745C10.3675 2.06646 9.58974 6.39155 10.6953 11.8039C10.8052 12.3399 10.9294 12.8732 11.0677 13.4032C10.422 13.579 9.79899 13.766 9.20273 13.9652C3.86726 15.7474 0.459961 18.5404 0.459961 21.4374C0.459961 24.4295 4.11786 27.4306 9.67498 29.2504C10.1255 29.3973 10.5798 29.5335 11.0374 29.6587C10.8888 30.2295 10.7568 30.8042 10.6417 31.3821C9.58777 36.7005 10.4108 40.9234 13.0303 42.3709C15.7358 43.8657 20.2768 42.3294 24.6983 38.6263C25.0568 38.3252 25.4075 38.0156 25.7499 37.6978C26.1923 38.1068 26.6466 38.5039 27.1121 38.8886C31.3952 42.4195 35.6251 43.8453 38.2421 42.3939C40.945 40.8947 41.8236 36.3582 40.683 30.8389C40.5932 30.4065 40.4924 29.9763 40.3809 29.5486C40.6998 29.458 41.0128 29.3649 41.3179 29.2679C47.0951 27.4342 50.854 24.4695 50.854 21.4374C50.854 18.5298 47.3366 15.718 41.8939 13.923ZM40.6409 27.3103C40.3653 27.3976 40.0826 27.4819 39.7944 27.564C39.1566 25.6295 38.296 23.5727 37.2427 21.4474C38.2478 19.3728 39.0753 17.3422 39.6952 15.4204C40.2108 15.5634 40.711 15.7141 41.1933 15.873C45.8567 17.4112 48.7012 19.6852 48.7012 21.4374C48.7012 23.3038 45.6291 25.7267 40.6409 27.3103ZM38.5712 31.2395C39.0755 33.68 39.1474 35.8865 38.8133 37.6116C38.5133 39.1617 37.9098 40.195 37.1633 40.609C35.5753 41.4897 32.179 40.345 28.5162 37.3251C28.0832 36.9674 27.6607 36.5983 27.2491 36.2181C28.6692 34.7302 30.0883 33.0006 31.4733 31.0796C33.9096 30.8725 36.2112 30.5338 38.2984 30.0715C38.3989 30.4587 38.4899 30.8482 38.5712 31.2395ZM17.6404 40.4568C16.0888 40.9817 14.853 40.9967 14.1059 40.5841C12.5163 39.7058 11.8555 36.315 12.7569 31.7668C12.864 31.2294 12.9867 30.6949 13.1248 30.1639C15.189 30.6015 17.4738 30.9161 19.9158 31.1058C21.3103 32.9855 22.7703 34.7133 24.2418 36.2262C23.9291 36.5161 23.609 36.7986 23.2817 37.0734C21.3264 38.7108 19.3672 39.8725 17.6404 40.4568ZM10.3714 27.2988C7.91414 26.494 5.8848 25.4483 4.49384 24.3071C3.24384 23.2817 2.61293 22.2635 2.61293 21.4374C2.61293 19.6793 5.34857 17.4369 9.91139 15.9128C10.4651 15.728 11.0447 15.5536 11.646 15.3899C12.2768 17.355 13.1039 19.4098 14.1022 21.4876C13.0909 23.5961 12.252 25.6837 11.6151 27.672C11.1974 27.5574 10.7828 27.4329 10.3714 27.2988ZM12.8081 11.4076C11.861 6.77063 12.49 3.27273 14.0728 2.39481C15.7587 1.45975 19.4866 2.79294 23.416 6.13562C23.6722 6.35409 23.9243 6.57698 24.1721 6.8042C22.7079 8.31052 21.2613 10.0254 19.8792 11.894C17.5091 12.1045 15.2404 12.4425 13.1545 12.8953C13.026 12.4023 12.9105 11.9064 12.8081 11.4078V11.4076ZM34.5458 16.5503C34.0531 15.735 33.5422 14.9299 33.0133 14.1357C34.6212 14.3305 36.1617 14.5891 37.6084 14.9052C37.1741 16.2389 36.6328 17.6332 35.9956 19.0628C35.5298 18.2161 35.0465 17.3785 34.5458 16.5503ZM25.6812 8.27827C26.6741 9.30895 27.6686 10.4596 28.6467 11.7081C26.6625 11.6183 24.6749 11.6179 22.6906 11.707C23.6697 10.4699 24.6727 9.32083 25.6812 8.27827ZM16.7597 16.5644C16.2652 17.3859 15.7909 18.2184 15.337 19.0611C14.7102 17.6366 14.1738 16.2359 13.7358 14.8833C15.1736 14.5751 16.7069 14.3232 18.3046 14.1319C17.7698 14.931 17.2547 15.742 16.7597 16.5643V16.5644ZM18.3504 28.8896C16.6998 28.7131 15.1435 28.4741 13.7061 28.1743C14.151 26.7975 14.6992 25.367 15.3396 23.912C15.7953 24.7553 16.2716 25.5883 16.7681 26.4101C17.2788 27.255 17.8075 28.0826 18.3504 28.8896ZM25.7406 34.7418C24.7201 33.6871 23.7024 32.5203 22.7085 31.2654C23.6735 31.3016 24.6571 31.32 25.657 31.32C26.6841 31.32 27.6995 31.298 28.6989 31.2554C27.7176 32.5329 26.7268 33.7015 25.7406 34.7418ZM36.0159 23.8377C36.6895 25.3087 37.2572 26.7317 37.708 28.0849C36.247 28.4043 34.6694 28.6616 33.0072 28.8526C33.5398 28.0437 34.0556 27.2246 34.5543 26.396C35.0612 25.5537 35.5485 24.7007 36.0159 23.8377ZM32.6895 25.3655C31.9261 26.6359 31.1199 27.8823 30.2719 29.1025C28.736 29.2067 27.1967 29.2585 25.657 29.2577C24.0886 29.2577 22.5632 29.211 21.0943 29.1197C20.2243 27.9023 19.4026 26.6537 18.6311 25.3768H18.6313C17.8634 24.1066 17.1462 22.809 16.4811 21.4866C17.1445 20.164 17.8596 18.8657 18.6248 17.5946L18.6246 17.5947C19.3896 16.3233 20.2047 15.0801 21.0682 13.8679C22.5668 13.7593 24.1036 13.7027 25.6568 13.7027H25.657C27.2172 13.7027 28.756 13.7598 30.2542 13.8692C31.109 15.0796 31.9189 16.3185 32.6824 17.5836C33.4502 18.852 34.1747 20.1439 34.8548 21.4574C34.1817 22.7843 33.4595 24.0878 32.6895 25.3655ZM37.1305 2.33333C38.8179 3.26575 39.4742 7.0258 38.4139 11.9567C38.3462 12.2712 38.2702 12.5917 38.1875 12.9166C36.0966 12.4542 33.8263 12.1104 31.4493 11.8967C30.0647 10.0075 28.6298 8.28996 27.1894 6.80307C27.5669 6.45445 27.9534 6.11487 28.3485 5.78465C32.069 2.6828 35.5462 1.45805 37.1305 2.33333ZM25.657 17.1261C28.1422 17.1261 30.157 19.0564 30.157 21.4374C30.157 23.8184 28.1422 25.7487 25.657 25.7487C23.1717 25.7487 21.1569 23.8184 21.1569 21.4374C21.1569 19.0564 23.1717 17.1261 25.657 17.1261Z" fill="#00D8FF"/>
</g>
<defs>
<clipPath id="clip0_20_135">
<rect width="50.394" height="43" fill="white" transform="translate(0.459961)"/>
</clipPath>
</defs>
</svg>
