<svg width="20" height="20" viewBox="0 0 20 20" fill="none" xmlns="http://www.w3.org/2000/svg">
<path d="M11.4286 0C11.0497 0 10.6864 0.15051 10.4185 0.418419C10.1506 0.686328 10 1.04969 10 1.42857C10 1.80745 10.1506 2.17081 10.4185 2.43872C10.6864 2.70663 11.0497 2.85714 11.4286 2.85714H15.1229L6.1329 11.8471C5.99646 11.9789 5.88763 12.1366 5.81276 12.3109C5.73789 12.4851 5.69848 12.6726 5.69683 12.8623C5.69518 13.052 5.73133 13.2401 5.80316 13.4156C5.87499 13.5912 5.98106 13.7507 6.1152 13.8848C6.24933 14.019 6.40883 14.1251 6.5844 14.1969C6.75996 14.2687 6.94808 14.3049 7.13776 14.3032C7.32745 14.3016 7.5149 14.2622 7.6892 14.1873C7.86349 14.1124 8.02112 14.0036 8.1529 13.8671L17.1429 4.87714V8.57143C17.1429 8.95031 17.2934 9.31367 17.5613 9.58158C17.8292 9.84949 18.1926 10 18.5715 10C18.9504 10 19.3137 9.84949 19.5816 9.58158C19.8495 9.31367 20 8.95031 20 8.57143V1.42857C20 1.04969 19.8495 0.686328 19.5816 0.418419C19.3137 0.15051 18.9504 0 18.5715 0H11.4286Z" fill="#27282D"/>
<path d="M2.85714 2.85693C2.09938 2.85693 1.37266 3.15795 0.836838 3.69377C0.301019 4.22959 0 4.95631 0 5.71408V17.1426C0 17.9004 0.301019 18.6271 0.836838 19.163C1.37266 19.6988 2.09938 19.9998 2.85714 19.9998H14.2857C15.0435 19.9998 15.7702 19.6988 16.306 19.163C16.8418 18.6271 17.1429 17.9004 17.1429 17.1426V12.8569C17.1429 12.4781 16.9923 12.1147 16.7244 11.8468C16.4565 11.5789 16.0932 11.4284 15.7143 11.4284C15.3354 11.4284 14.972 11.5789 14.7041 11.8468C14.4362 12.1147 14.2857 12.4781 14.2857 12.8569V17.1426H2.85714V5.71408H7.14286C7.52174 5.71408 7.8851 5.56357 8.15301 5.29566C8.42092 5.02775 8.57143 4.66439 8.57143 4.2855C8.57143 3.90662 8.42092 3.54326 8.15301 3.27535C7.8851 3.00744 7.52174 2.85693 7.14286 2.85693H2.85714Z" fill="#27282D"/>
</svg>
