<svg width="45" height="45" viewBox="0 0 45 45" fill="none" xmlns="http://www.w3.org/2000/svg">
<path d="M37.5 33.75H33.75V17.3438L22.5 24.375L11.25 17.3438V33.75H7.5V11.25H9.75L22.5 19.2188L35.25 11.25H37.5V33.75ZM37.5 7.5H7.5C5.41875 7.5 3.75 9.16875 3.75 11.25V33.75C3.75 34.7446 4.14509 35.6984 4.84835 36.4016C5.55161 37.1049 6.50544 37.5 7.5 37.5H37.5C38.4946 37.5 39.4484 37.1049 40.1517 36.4016C40.8549 35.6984 41.25 34.7446 41.25 33.75V11.25C41.25 10.2554 40.8549 9.30161 40.1517 8.59835C39.4484 7.89509 38.4946 7.5 37.5 7.5Z" fill="#27282D"/>
</svg>
