<svg width="25" height="25" viewBox="0 0 25 25" fill="none" xmlns="http://www.w3.org/2000/svg">
<path d="M21.6797 5.67865L19.0796 3.08099C18.8962 2.89677 18.6782 2.75061 18.4381 2.65089C18.198 2.55118 17.9406 2.49988 17.6807 2.49994C17.1509 2.49994 16.6528 2.70746 16.2793 3.08099L13.4814 5.87884C13.2972 6.06226 13.1511 6.28026 13.0513 6.52033C12.9516 6.76041 12.9003 7.01781 12.9004 7.27777C12.9004 7.80756 13.1079 8.3056 13.4814 8.67914L15.5273 10.725C15.0484 11.7806 14.3826 12.7409 13.562 13.5595C12.7435 14.3821 11.7833 15.0504 10.7275 15.5322L8.68164 13.4863C8.49823 13.302 8.28022 13.1559 8.04015 13.0562C7.80008 12.9565 7.54267 12.9052 7.28272 12.9052C6.75293 12.9052 6.25488 13.1127 5.88135 13.4863L3.08106 16.2817C2.89661 16.4654 2.75032 16.6838 2.6506 16.9243C2.55088 17.1648 2.4997 17.4227 2.5 17.683C2.5 18.2128 2.70752 18.7109 3.08106 19.0844L5.67627 21.6796C6.27197 22.2778 7.09473 22.6171 7.93945 22.6171C8.11768 22.6171 8.28858 22.6025 8.45703 22.5732C11.748 22.0312 15.0122 20.2807 17.6465 17.6489C20.2783 15.0195 22.0264 11.7578 22.5757 8.45697C22.7417 7.44867 22.4072 6.41107 21.6797 5.67865Z" fill="white"/>
</svg>
