<svg width="743" height="840" viewBox="0 0 743 840" fill="none" xmlns="http://www.w3.org/2000/svg">
<path d="M342.591 7.66059C360.271 -2.55353 382.054 -2.55353 399.735 7.66059L713.753 189.071C731.434 199.285 742.326 218.161 742.326 238.59V601.41C742.326 621.838 731.434 640.715 713.753 650.929L399.735 832.339C382.054 842.553 360.271 842.553 342.591 832.339L28.5721 650.929C10.8916 640.715 0 621.839 0 601.41V238.59C0 218.161 10.8916 199.285 28.5721 189.071L342.591 7.66059Z" fill="#FF9900"/>
<path fill-rule="evenodd" clip-rule="evenodd" d="M488.453 204.256C487.95 204.526 487.447 204.796 487.021 205.143L486.905 205.066C420.186 244.105 334.889 247.268 263.061 205.954C262.752 205.761 262.403 205.568 262.094 205.375C261.165 204.642 260.159 204.063 259.114 203.678C254.044 200.784 247.62 202.482 244.678 207.535C243.285 209.927 242.976 212.627 243.556 215.096C243.556 215.945 243.595 216.793 243.595 217.681C243.595 299.731 214.918 371.328 148.546 409.595C145.102 410.714 142.432 413.414 141.348 416.847C141.279 417.022 141.227 417.203 141.193 417.387C141.116 417.619 141.038 417.85 141 418.082C141 418.159 141 418.236 140.961 418.313C140.845 418.93 140.767 419.548 140.767 420.165V420.203V420.242C140.767 420.859 140.845 421.476 140.961 422.094C141 422.441 141.116 422.749 141.193 423.097L141.309 423.521C142.354 427.031 145.102 429.77 148.585 430.889C214.879 469.118 243.556 540.598 243.556 622.495C243.556 623.343 243.556 624.192 243.517 625.079C242.976 627.548 243.285 630.249 244.64 632.64C245.858 634.743 247.768 636.361 250.047 637.219C252.325 638.076 254.832 638.122 257.14 637.346C259.346 636.922 261.358 635.881 262.984 634.222C262.984 634.222 263.023 634.222 263.023 634.183C334.696 592.984 419.837 596.07 486.48 634.878C488.531 636.614 491.124 637.539 493.755 637.539C493.871 637.539 493.988 637.578 494.104 637.578C494.297 637.578 494.491 637.539 494.684 637.501C494.916 637.462 495.149 637.462 495.381 637.424C498.245 637.076 500.721 635.611 502.386 633.489C502.54 633.296 502.695 633.142 502.811 632.949C502.85 632.91 502.85 632.872 502.889 632.833C504.746 630.249 505.366 626.97 504.669 623.845V622.495C504.669 540.868 532.727 469.58 598.479 431.236C601.061 430.756 603.392 429.39 605.068 427.374C606.744 425.358 607.658 422.821 607.651 420.203C607.651 414.726 603.742 410.174 598.518 409.171C532.727 370.788 504.669 299.423 504.669 217.642V216.562C505.249 214.093 504.978 211.586 503.934 209.348C503.179 207.346 501.83 205.62 500.068 204.4C498.305 203.18 496.211 202.525 494.065 202.52C492.207 202.52 490.504 203.022 488.995 203.87C488.84 204.025 488.647 204.141 488.453 204.256ZM354.859 409.016L281.018 409.016C295.647 389.343 308.07 367.972 317.939 345.251L354.859 409.016ZM337.444 333.948C362.173 336.764 387.019 336.687 411.439 333.832L374.403 397.791L337.444 333.948ZM354.859 431.468L317.939 495.195C308.121 472.605 295.719 451.221 280.98 431.468L354.859 431.468ZM374.403 442.693L411.362 506.497C386.98 503.643 362.212 503.566 337.521 506.382L374.403 442.693ZM324.595 528.64C357.594 523.213 391.267 523.265 424.249 528.794L466.471 601.664C408.885 578.21 342.862 576.821 282.528 601.317L324.595 528.64ZM393.908 431.468H467.284C452.677 451.108 440.368 472.346 430.596 494.77L393.908 431.468ZM393.908 409.016L430.596 345.675C440.376 368.107 452.685 389.358 467.284 409.016H393.908ZM424.365 311.497C391.321 317.065 357.579 317.117 324.518 311.651L282.334 238.82C342.823 263.47 409.001 262.081 466.704 238.473L424.365 311.497ZM263.177 250.663L304.974 322.877C293.265 354.146 276.419 383.257 255.128 409.016H186.241C232.294 371.019 257.024 314.853 263.177 250.663ZM186.279 431.468H255.166C276.449 457.205 293.294 486.289 305.013 517.53L263.177 589.783C257.063 525.631 232.333 469.465 186.279 431.468ZM485.164 589.011L443.483 517.067C455.248 485.705 472.122 456.85 493.097 431.468H561.52C515.776 469.31 491.317 525.168 485.164 589.011ZM561.559 409.016H493.136C471.993 383.372 455.242 354.424 443.561 323.34L485.203 251.434C491.395 315.316 515.853 371.174 561.559 409.016Z" fill="#161E29" fill-opacity="0.6"/>
<path d="M206.639 528.528C209.924 532.446 209.978 538.169 206.766 542.149C203.192 546.579 196.793 547.382 192.252 543.972L54.6184 440.642C44.704 433.198 44.419 418.319 54.0409 410.495L194.791 296.043C198.04 293.401 202.683 293.433 205.897 296.118C209.49 299.121 210.124 304.435 207.341 308.212L129.551 413.802C124.312 420.914 124.619 430.729 130.292 437.494L206.639 528.528Z" fill="#161E29"/>
<path fill-rule="evenodd" clip-rule="evenodd" d="M497.175 202.66C503.592 206.338 505.813 214.522 502.135 220.939L266.414 632.234C262.736 638.651 254.551 640.872 248.134 637.194C241.716 633.516 239.495 625.332 243.174 618.914L478.895 207.62C482.573 201.202 490.757 198.982 497.175 202.66Z" fill="#161E29"/>
<path d="M541.78 313.454C538.494 309.567 538.44 303.888 541.652 299.939C545.226 295.544 551.625 294.747 556.167 298.13L693.8 400.66C703.715 408.046 704 422.809 694.378 430.573L553.628 544.138C550.379 546.759 545.735 546.728 542.522 544.063C538.929 541.083 538.294 535.811 541.077 532.063L618.867 427.292C624.107 420.235 623.8 410.495 618.127 403.783L541.78 313.454Z" fill="#161E29"/>
</svg>
