<svg width="54" height="60" viewBox="0 0 54 60" fill="none" xmlns="http://www.w3.org/2000/svg">
<path d="M24.4708 0.547185C25.7337 -0.182395 27.2896 -0.182395 28.5525 0.547185L50.9824 13.5051C52.2453 14.2346 53.0233 15.583 53.0233 17.0421V42.9579C53.0233 44.417 52.2453 45.7654 50.9824 46.4949L28.5525 59.4528C27.2896 60.1824 25.7337 60.1824 24.4708 59.4528L2.04087 46.4949C0.777974 45.7654 0 44.417 0 42.9579V17.0421C0 15.583 0.777974 14.2346 2.04087 13.5051L24.4708 0.547185Z" fill="#FF8800"/>
<path fill-rule="evenodd" clip-rule="evenodd" d="M34.8895 14.5897C34.8536 14.609 34.8177 14.6283 34.7872 14.6531L34.779 14.6476C30.0133 17.4361 23.9207 17.662 18.7901 14.711C18.768 14.6972 18.7431 14.6834 18.721 14.6696C18.6546 14.6173 18.5828 14.5759 18.5081 14.5484C18.146 14.3417 17.6871 14.463 17.477 14.8239C17.3775 14.9948 17.3554 15.1876 17.3969 15.364C17.3969 15.4246 17.3996 15.4852 17.3996 15.5486C17.3996 21.4094 15.3513 26.5234 10.6104 29.2568C10.3644 29.3367 10.1737 29.5296 10.0963 29.7748C10.0913 29.7873 10.0876 29.8002 10.0852 29.8134C10.0797 29.8299 10.0742 29.8464 10.0714 29.863C10.0714 29.8685 10.0714 29.874 10.0686 29.8795C10.0603 29.9236 10.0548 29.9677 10.0548 30.0118V30.0145V30.0173C10.0548 30.0614 10.0603 30.1054 10.0686 30.1495C10.0714 30.1743 10.0797 30.1964 10.0852 30.2212L10.0935 30.2515C10.1681 30.5022 10.3644 30.6979 10.6132 30.7778C15.3485 33.5084 17.3969 38.6142 17.3969 44.4639C17.3969 44.5245 17.3969 44.5851 17.3941 44.6485C17.3554 44.8249 17.3775 45.0177 17.4743 45.1886C17.5612 45.3388 17.6977 45.4543 17.8605 45.5156C18.0232 45.5769 18.2023 45.5801 18.3671 45.5247C18.5247 45.4944 18.6685 45.42 18.7846 45.3015C18.7846 45.3015 18.7873 45.3015 18.7873 45.2988C23.9069 42.356 29.9884 42.5764 34.7485 45.3484C34.8951 45.4724 35.0803 45.5385 35.2682 45.5385C35.2765 45.5385 35.2848 45.5413 35.2931 45.5413C35.3069 45.5413 35.3208 45.5385 35.3346 45.5358C35.3512 45.533 35.3678 45.533 35.3843 45.5302C35.5889 45.5054 35.7658 45.4007 35.8847 45.2492C35.8957 45.2354 35.9068 45.2244 35.9151 45.2106C35.9179 45.2079 35.9179 45.2051 35.9206 45.2023C36.0533 45.0177 36.0975 44.7835 36.0478 44.5603V44.4639C36.0478 38.6334 38.0519 33.5414 42.7485 30.8026C42.9329 30.7683 43.0994 30.6707 43.2191 30.5267C43.3388 30.3827 43.4041 30.2015 43.4037 30.0145C43.4037 29.6232 43.1245 29.2981 42.7513 29.2265C38.0519 26.4848 36.0478 21.3873 36.0478 15.5458V15.4687C36.0892 15.2923 36.0699 15.1132 35.9953 14.9534C35.9414 14.8104 35.845 14.6871 35.7191 14.6C35.5932 14.5129 35.4436 14.466 35.2904 14.4657C35.1577 14.4657 35.036 14.5015 34.9282 14.5622C34.9172 14.5732 34.9033 14.5815 34.8895 14.5897ZM25.3471 29.2154H20.0727C21.1176 27.8102 22.005 26.2837 22.7099 24.6607L25.3471 29.2154ZM24.1031 23.8534C25.8695 24.0546 27.6442 24.049 29.3885 23.8451L26.7431 28.4136L24.1031 23.8534ZM25.3471 30.8191L22.7099 35.371C22.0086 33.7575 21.1228 32.2301 20.07 30.8191L25.3471 30.8191ZM26.7431 31.6209L29.383 36.1784C27.6415 35.9745 25.8723 35.969 24.1086 36.1701L26.7431 31.6209ZM23.1854 37.76C25.5424 37.3723 27.9476 37.376 30.3035 37.771L33.3194 42.976C29.2061 41.3007 24.4901 41.2015 20.1805 42.9512L23.1854 37.76ZM28.1363 30.8191H33.3774C32.3341 32.2219 31.4548 33.739 30.7569 35.3407L28.1363 30.8191ZM28.1363 29.2154L30.7569 24.6911C31.4554 26.2934 32.3346 27.8112 33.3774 29.2154H28.1363ZM30.3118 22.2498C27.9515 22.6475 25.5413 22.6512 23.1798 22.2608L20.1667 17.0586C24.4874 18.8193 29.2144 18.7201 33.336 17.0338L30.3118 22.2498ZM18.7984 17.9045L21.7838 23.0626C20.9475 25.2961 19.7442 27.3754 18.2234 29.2154L13.3029 29.2154C16.5924 26.5014 18.3588 22.4895 18.7984 17.9045ZM13.3057 30.8191L18.2262 30.8191C19.7464 32.6575 20.9496 34.7349 21.7866 36.9664L18.7984 42.1273C18.3616 37.5451 16.5952 33.5332 13.3057 30.8191ZM34.6546 42.0722L31.6774 36.9334C32.5177 34.6932 33.723 32.6322 35.2212 30.8191L40.1086 30.8191C36.8411 33.5222 35.0941 37.512 34.6546 42.0722ZM40.1113 29.2154L35.224 29.2154C33.7138 27.3837 32.5173 25.316 31.6829 23.0957L34.6573 17.9596C35.0996 22.5225 36.8467 26.5124 40.1113 29.2154Z" fill="#161E29" fill-opacity="0.6"/>
<path d="M14.7599 37.752C14.9946 38.0319 14.9985 38.4407 14.7691 38.7249C14.5138 39.0413 14.0567 39.0987 13.7323 38.8552L3.90135 31.4744C3.19318 30.9427 3.17282 29.8799 3.8601 29.3211L13.9137 21.1459C14.1457 20.9572 14.4774 20.9595 14.7069 21.1513C14.9636 21.3658 15.0089 21.7453 14.8101 22.0152L9.2537 29.5573C8.87944 30.0653 8.90136 30.7664 9.30661 31.2496L14.7599 37.752Z" fill="#161E29"/>
<path fill-rule="evenodd" clip-rule="evenodd" d="M35.5125 14.4757C35.9709 14.7384 36.1296 15.323 35.8668 15.7814L19.0296 45.1596C18.7669 45.618 18.1823 45.7766 17.7239 45.5139C17.2655 45.2511 17.1069 44.6666 17.3696 44.2082L34.2068 14.83C34.4695 14.3716 35.0541 14.213 35.5125 14.4757Z" fill="#161E29"/>
<path d="M38.6986 22.3896C38.4639 22.1119 38.46 21.7062 38.6894 21.4242C38.9447 21.1102 39.4018 21.0533 39.7262 21.295L49.5571 28.6185C50.2653 29.1461 50.2857 30.2006 49.5984 30.7551L39.5448 38.8669C39.3128 39.0542 38.9811 39.0519 38.7516 38.8616C38.4949 38.6488 38.4496 38.2722 38.6484 38.0044L44.2048 30.5208C44.5791 30.0167 44.5571 29.3211 44.1519 28.8416L38.6986 22.3896Z" fill="#161E29"/>
</svg>
