<svg width="53" height="50" viewBox="0 0 53 50" fill="none" xmlns="http://www.w3.org/2000/svg">
<path d="M10.0785 42.5016L6.41553 3.125H46.679L43.0111 42.4953L26.5228 46.875L10.0785 42.5016Z" fill="#1572B6"/>
<path d="M26.5474 43.5281L39.8718 39.9891L43.0063 6.34531H26.5474V43.5281Z" fill="#33A9DC"/>
<path d="M26.5474 20.6109H33.2177L33.6776 15.6656H26.5474V10.8359H39.1868L39.0661 12.1312L37.8282 25.4406H26.5474V20.6109Z" fill="white"/>
<path d="M26.5783 33.1531L26.5554 33.1594L20.9419 31.7063L20.5831 27.8547H15.5225L16.2286 35.4375L26.5538 38.1844L26.5783 38.1781V33.1531Z" fill="#EBEBEB"/>
<path d="M32.7889 25.2359L32.1822 31.7031L26.5605 33.1562V38.1813L36.8939 35.4375L36.9705 34.6219L37.8463 25.2359H32.7889Z" fill="white"/>
<path d="M26.5655 10.8359V15.6656H14.3893L14.2881 14.5797L14.0582 12.1312L13.9375 10.8359H26.5655ZM26.5476 20.6109V25.4406H21.0042L20.903 24.3547L20.6747 21.9062L20.554 20.6109H26.5476Z" fill="#EBEBEB"/>
</svg>
