<svg width="53" height="50" viewBox="0 0 53 50" fill="none" xmlns="http://www.w3.org/2000/svg">
<path d="M26.5935 29.2188C25.8091 29.5641 24.9496 30.0141 23.229 30.9188C22.5766 31.2704 21.8949 31.6219 21.2605 31.9532C21.2165 31.911 21.1708 31.8579 21.1268 31.8141C17.7231 28.3297 11.4278 25.8688 11.6953 21.1891C11.7948 19.4844 12.4064 15.0094 23.7851 9.57501C33.1497 5.15313 40.6012 6.37813 41.888 9.09532C43.7374 12.9688 37.894 20.1766 28.2228 21.2219C27.1524 21.4299 26.0469 21.4048 24.9881 21.1484C23.9292 20.892 22.944 20.4109 22.1053 19.7406C21.5932 19.2078 21.5165 19.1766 21.3274 19.2828C21.0159 19.4391 21.2165 19.9219 21.3274 20.1985C21.6963 20.8384 22.1953 21.4009 22.7951 21.8529C23.3948 22.3048 24.0831 22.637 24.8191 22.8297C28.625 23.6178 32.5931 23.2413 36.1636 21.7532C42.025 19.5797 46.6013 13.5375 45.2607 8.47188C43.9152 3.33594 35.0171 1.64219 26.5984 4.50781C21.3262 6.20999 16.4551 8.88955 12.2629 12.3938C7.6246 16.55 6.8907 20.1625 7.19079 21.675C8.27044 27.0453 15.9976 30.5407 19.0963 33.1297C18.9332 33.2157 18.7962 33.286 18.6739 33.3532C17.1278 34.0891 11.2338 37.0407 9.76434 40.1626C8.09593 43.7001 10.0318 46.236 11.3104 46.5766C13.2373 47.0188 15.2602 46.8735 17.0967 46.1608C18.9332 45.4482 20.4915 44.2039 21.5541 42.6016C22.4564 41.273 23.0105 39.7552 23.1692 38.1774C23.3279 36.5996 23.0866 35.0084 22.4657 33.5391C22.832 33.2592 23.2227 33.0098 23.6334 32.7938C24.4228 32.3469 25.1746 31.9063 25.8417 31.5657C28.1255 30.5408 30.6179 30.013 33.1399 30.0204C38.4338 30.6172 39.4792 33.7813 39.2786 35.1141C39.1847 35.587 38.9863 36.0351 38.6965 36.4283C38.4068 36.8216 38.0324 37.1508 37.5988 37.3938C37.2318 37.6172 37.1095 37.6922 37.1421 37.8516C37.1862 38.086 37.3639 38.075 37.6754 38.0329C38.4708 37.792 39.1715 37.3263 39.6856 36.6969C40.1996 36.0675 40.5029 35.3039 40.5556 34.5063C40.7187 31.3813 37.6086 27.9532 32.1027 27.9844C30.454 27.9871 28.8219 28.2987 27.2981 28.9016C27.0534 28.9985 26.8159 29.1026 26.5854 29.2141L26.5935 29.2188ZM18.7245 41.4672C16.9664 43.3001 14.52 43.9922 13.4632 43.4063C12.3216 42.7813 12.7733 40.0704 14.931 38.1313C16.2089 37.0282 17.5901 36.0402 19.0572 35.1797C19.3132 35.0235 19.6916 34.8172 20.1466 34.5547L20.2689 34.4907L20.5364 34.3344C20.9212 35.5705 20.9562 36.8824 20.6378 38.1357C20.3195 39.3891 19.6591 40.5388 18.7245 41.4672Z" fill="#CD6799"/>
</svg>
