<svg width="53" height="31" viewBox="0 0 53 31" fill="none" xmlns="http://www.w3.org/2000/svg">
<g clip-path="url(#clip0_20_137)">
<path d="M26.3589 0C19.4005 0 15.0513 3.3334 13.3118 10C15.9212 6.6666 18.9655 5.4166 22.4448 6.25C24.4298 6.72539 25.8487 8.10527 27.4192 9.63242C29.9777 12.1205 32.9386 15 39.4061 15C46.3645 15 50.7136 11.6666 52.4532 5C49.8438 8.3334 46.7995 9.5834 43.3202 8.75C41.3352 8.27461 39.9163 6.89473 38.3458 5.36758C35.7873 2.87949 32.8264 0 26.3589 0ZM13.3118 15C6.35338 15 2.0042 18.3334 0.264648 25C2.87408 21.6666 5.91834 20.4166 9.39764 21.25C11.3826 21.7254 12.8015 23.1053 14.3721 24.6324C16.9305 27.1205 19.8914 30 26.3589 30C33.3173 30 37.6665 26.6666 39.4061 20C36.7966 23.3334 33.7524 24.5834 30.2731 23.75C28.2881 23.2746 26.8692 21.8947 25.2986 20.3676C22.7402 17.8795 19.7793 15 13.3118 15Z" fill="url(#paint0_linear_20_137)"/>
</g>
<defs>
<linearGradient id="paint0_linear_20_137" x1="-1.18515" y1="9.6" x2="42.9041" y2="36.1338" gradientUnits="userSpaceOnUse">
<stop stop-color="#2298BD"/>
<stop offset="1" stop-color="#0ED7B5"/>
</linearGradient>
<clipPath id="clip0_20_137">
<rect width="52.1886" height="30.0781" fill="white" transform="translate(0.264648)"/>
</clipPath>
</defs>
</svg>
